<?xml version="1.0" standalone="no"?>
<!DOCTYPE svg PUBLIC "-//W3C//DTD SVG 20010904//EN"
 "http://www.w3.org/TR/2001/REC-SVG-20010904/DTD/svg10.dtd">
<svg version="1.0" xmlns="http://www.w3.org/2000/svg"
 width="1024.000000pt" height="1024.000000pt" viewBox="0 0 1024.000000 1024.000000"
 preserveAspectRatio="xMidYMid meet">
<metadata>
Created by potrace 1.14, written by Peter Selinger 2001-2017
</metadata>
<g transform="translate(0.000000,1024.000000) scale(0.100000,-0.100000)"
fill="#000000" stroke="none">
<path d="M7517 9464 c-2 -2 -64 -6 -257 -19 -30 -2 -71 -7 -90 -10 -50 -9 -79
-13 -133 -20 -26 -3 -71 -10 -100 -16 -29 -6 -63 -12 -77 -15 -14 -3 -32 -7
-40 -9 -8 -2 -31 -7 -50 -10 -119 -20 -421 -117 -589 -189 -128 -56 -389 -190
-401 -206 -3 -4 -15 -10 -27 -14 -13 -4 -23 -11 -23 -16 0 -4 -8 -10 -17 -14
-22 -7 -31 -13 -157 -103 -93 -67 -141 -103 -170 -128 -6 -5 -47 -39 -91 -75
-44 -36 -105 -87 -135 -115 -85 -77 -338 -332 -405 -409 -33 -38 -65 -74 -70
-80 -6 -6 -47 -56 -90 -111 -44 -55 -82 -102 -85 -105 -6 -5 -66 -86 -173
-232 -32 -43 -57 -82 -57 -88 0 -5 -4 -10 -10 -10 -5 0 -10 -5 -10 -10 0 -6
-5 -16 -11 -23 -5 -7 -29 -41 -53 -77 l-43 -65 -924 -1 c-837 -1 -930 -2 -989
-18 -243 -63 -470 -226 -578 -414 -23 -41 -42 -80 -42 -88 0 -8 -4 -14 -10
-14 -5 0 -10 -4 -10 -10 0 -5 -133 -278 -296 -607 -582 -1175 -535 -1072 -528
-1178 9 -147 81 -265 206 -337 87 -51 87 -51 1056 -51 l904 0 -213 -211 c-117
-116 -218 -218 -224 -226 -16 -21 -54 -114 -72 -174 -17 -55 -23 -214 -11
-285 5 -24 27 -83 49 -130 42 -85 46 -90 498 -541 251 -251 474 -469 496 -486
163 -122 401 -146 592 -58 81 37 130 73 209 155 38 39 123 128 190 197 l121
126 1 -900 c0 -494 3 -917 6 -939 9 -64 71 -179 119 -220 52 -45 117 -82 170
-96 55 -15 154 -18 197 -7 36 10 1721 846 1823 906 67 39 178 140 216 196 65
96 81 124 99 161 47 100 63 152 78 245 4 25 8 454 8 953 l1 909 161 111 c238
166 332 238 514 393 204 174 494 459 595 584 52 65 110 135 116 140 3 3 35 46
72 95 37 50 70 95 75 100 7 9 108 162 158 240 40 64 133 247 185 365 100 230
202 578 234 800 7 50 16 106 20 130 42 229 53 964 20 1320 -2 25 -7 70 -10
100 -3 30 -7 82 -10 115 -6 70 -7 74 -35 265 -34 228 -59 319 -100 360 -43 43
-99 71 -175 85 -92 18 -255 45 -295 50 -25 3 -61 7 -80 9 -19 3 -64 7 -100 11
-36 3 -81 8 -100 10 -19 2 -75 7 -125 10 -49 3 -119 8 -155 11 -64 5 -738 12
-743 8z m-85 -1504 c18 -5 45 -11 59 -14 51 -8 176 -76 242 -131 72 -61 144
-153 179 -231 44 -100 57 -171 55 -309 -2 -114 -6 -140 -31 -209 -36 -100 -83
-175 -161 -252 -50 -50 -161 -134 -178 -134 -3 0 -22 -8 -43 -17 -22 -9 -43
-17 -49 -19 -5 -1 -37 -7 -69 -14 -187 -39 -406 6 -562 115 -34 24 -144 136
-144 148 0 4 -11 25 -24 46 -28 44 -71 166 -82 231 -10 67 -7 215 6 270 6 26
13 54 14 61 15 76 84 187 166 270 99 100 198 156 323 183 71 15 251 19 299 6z"/>
</g>
</svg>
